<?xml version="1.0" standalone="no"?>
<!DOCTYPE svg PUBLIC "-//W3C//DTD SVG 20010904//EN"
 "http://www.w3.org/TR/2001/REC-SVG-20010904/DTD/svg10.dtd">
<svg version="1.0" xmlns="http://www.w3.org/2000/svg"
 width="500.000000pt" height="500.000000pt" viewBox="0 0 500.000000 500.000000"
 preserveAspectRatio="xMidYMid meet">

<g transform="translate(0.000000,500.000000) scale(0.100000,-0.100000)"
fill="#9450f2" stroke="none">
<path d="M2335 4824 c-737 -60 -1403 -457 -1815 -1084 -91 -140 -210 -387
-263 -546 -89 -272 -124 -518 -114 -804 7 -197 25 -332 67 -500 217 -870 920
-1555 1796 -1749 235 -52 562 -67 806 -35 953 123 1757 838 1999 1778 79 305
90 687 29 1007 -106 558 -411 1061 -860 1421 -319 255 -723 432 -1130 493
-103 15 -417 27 -515 19z m421 -179 c417 -44 810 -209 1150 -483 168 -135 356
-347 474 -537 126 -202 235 -478 283 -715 135 -662 -24 -1324 -440 -1840 -79
-97 -276 -289 -378 -366 -300 -228 -680 -383 -1047 -429 -142 -17 -407 -20
-546 -4 -375 41 -768 198 -1074 430 -108 82 -302 272 -388 379 -239 300 -394
655 -455 1040 -23 146 -31 418 -16 563 78 747 528 1404 1192 1737 151 76 220
104 360 145 304 88 572 113 885 80z" fill="#9450f2"/>
<path d="M2340 4514 c-199 -24 -379 -64 -520 -116 -651 -238 -1141 -780 -1310
-1451 -98 -388 -74 -819 66 -1196 193 -517 589 -942 1088 -1169 785 -356 1692
-189 2301 422 331 333 537 754 594 1216 16 122 13 388 -4 510 -128 898 -821
1611 -1715 1762 -110 19 -416 32 -500 22z m-699 -1539 c48 -17 93 -55 115 -97
28 -54 21 -61 -73 -73 -43 -6 -53 -4 -53 8 0 8 -10 26 -21 41 -28 35 -73 33
-102 -6 -28 -38 -28 -178 0 -216 25 -33 76 -41 104 -16 28 25 24 32 -18 36
-38 3 -38 3 -38 48 l0 45 99 3 c64 2 103 -1 112 -9 10 -9 14 -40 14 -125 l0
-114 -29 0 c-19 0 -35 8 -44 20 -14 21 -14 21 -62 -5 -80 -42 -171 -31 -242
30 -81 69 -103 208 -51 315 30 62 70 96 132 116 56 17 105 17 157 -1z m536
-15 c97 -44 110 -164 25 -231 l-31 -24 39 -87 c22 -49 40 -95 40 -103 0 -12
-15 -15 -78 -15 l-77 0 -29 83 c-33 94 -41 107 -67 107 -17 0 -19 -9 -19 -95
l0 -95 -75 0 -75 0 0 240 0 240 153 0 c128 0 159 -3 194 -20z m1383 -222 c-1
-18 -7 -44 -15 -58 -25 -44 -20 -50 41 -50 41 0 63 5 81 20 33 26 97 26 143 1
59 -31 69 -60 76 -225 l7 -147 -28 -29 c-53 -56 -140 -32 -165 45 -11 34 -14
35 -60 35 -37 0 -55 6 -78 25 -38 32 -47 31 -89 -5 -35 -32 -61 -37 -94 -19
-17 9 -22 5 -40 -35 -35 -79 -99 -100 -158 -50 -30 25 -31 28 -31 112 1 146
14 230 41 259 49 53 136 69 182 33 34 -27 117 -29 117 -2 0 10 7 27 15 38 8
10 15 31 15 45 0 29 7 39 27 39 8 0 13 -12 13 -32z m-814 -294 c47 -17 97 -64
89 -85 -7 -17 -78 -69 -95 -69 -7 0 -28 9 -46 21 -21 12 -46 19 -65 17 -59 -6
-41 -24 46 -47 99 -27 143 -53 167 -101 24 -47 22 -97 -4 -150 -18 -35 -35
-51 -78 -73 -51 -26 -62 -28 -146 -25 -101 4 -170 31 -206 79 -24 32 -18 48
36 82 53 33 66 34 96 2 28 -30 82 -42 117 -26 36 16 20 29 -63 50 -117 30
-166 68 -180 140 -31 151 148 251 332 185z m-1783 -90 l76 -106 3 103 3 104
70 0 70 0 3 -254 c2 -197 -1 -256 -10 -263 -20 -12 -112 -9 -130 5 -9 6 -50
59 -92 117 l-76 104 0 -105 c0 -68 -4 -109 -12 -117 -16 -16 -120 -16 -136 0
-9 9 -12 78 -12 249 0 131 3 244 6 253 5 13 22 16 83 16 l77 0 77 -106z m677
36 l0 -70 -115 0 -115 0 0 -25 c0 -24 2 -25 64 -25 78 0 88 -10 84 -82 l-3
-53 -72 -3 c-70 -3 -73 -4 -73 -27 0 -25 0 -25 104 -25 57 0 111 -3 120 -6 23
-9 23 -129 0 -138 -20 -8 -368 -8 -388 0 -14 5 -16 38 -16 258 0 139 3 256 7
259 3 4 96 7 205 7 l198 0 0 -70z m195 60 c3 -6 17 -49 31 -98 14 -48 27 -94
30 -102 3 -8 20 35 37 95 l32 110 68 3 c38 2 74 -2 81 -7 7 -6 26 -58 42 -116
15 -57 29 -103 31 -102 1 2 14 48 29 103 14 54 31 105 37 112 7 9 30 12 71 10
57 -3 61 -5 64 -29 4 -36 -127 -471 -146 -486 -19 -16 -106 -17 -132 -3 -13 7
-30 45 -51 113 l-31 102 -30 -100 c-16 -55 -36 -106 -45 -112 -19 -14 -121
-17 -141 -4 -13 8 -152 455 -152 489 0 10 3 22 7 25 10 11 161 8 168 -3z" fill="#9450f2"/>
<path d="M1980 2835 l0 -45 48 0 c50 0 72 12 72 41 0 30 -29 49 -76 49 l-44 0
0 -45z" fill="#9450f2" />
<path d="M3661 2560 c-19 -11 -9 -45 14 -45 13 0 21 8 23 21 3 23 -17 37 -37
24z"  fill="#9450f2" />
<path d="M3750 2555 c-7 -8 -10 -22 -6 -30 7 -20 42 -19 50 1 8 22 8 22 -13
33 -14 8 -22 7 -31 -4z" fill="#9450f2" />
<path d="M3270 2525 c0 -18 -5 -25 -20 -25 -11 0 -20 -4 -20 -10 0 -5 9 -10
20 -10 13 0 20 -7 20 -19 0 -29 18 -35 22 -9 2 15 11 24 26 26 30 5 28 22 -3
22 -20 0 -25 5 -25 25 0 14 -4 25 -10 25 -5 0 -10 -11 -10 -25z"/>
<path d="M3450 2490 c0 -5 11 -10 25 -10 14 0 25 5 25 10 0 6 -11 10 -25 10
-14 0 -25 -4 -25 -10z" fill="#9450f2" />
<path d="M3540 2490 c0 -5 11 -10 25 -10 14 0 25 5 25 10 0 6 -11 10 -25 10
-14 0 -25 -4 -25 -10z" fill="#9450f2" />
<path d="M3652 2448 c2 -15 11 -24 26 -26 18 -3 22 1 22 22 0 21 -5 26 -26 26
-21 0 -25 -4 -22 -22z" fill="#9450f2" />
<path d="M3744 2455 c-4 -9 -2 -21 4 -27 16 -16 47 -5 47 17 0 26 -42 34 -51
10z" fill="#9450f2" />
<path d="M2534 2411 c-138 -63 -114 -212 41 -252 90 -23 119 -35 132 -56 14
-20 13 -24 -12 -49 -24 -24 -32 -26 -86 -22 -47 3 -65 10 -87 31 l-27 26 -34
-28 -34 -28 28 -21 c57 -45 183 -65 256 -41 82 28 122 84 111 157 -7 53 -49
88 -133 112 -110 32 -128 40 -135 62 -3 12 1 27 12 39 24 27 112 27 146 0 24
-19 25 -19 53 3 34 27 28 41 -29 67 -54 25 -148 25 -202 0z" fill="#9450f2"/>
<path d="M760 2200 l0 -230 45 0 44 0 3 127 c2 76 7 128 13 130 6 2 53 -55
105 -127 l95 -130 48 0 47 0 0 230 0 230 -45 0 -45 0 0 -120 c0 -158 -8 -158
-120 0 l-84 120 -53 0 -53 0 0 -230z" fill="#9450f2"/>
<path d="M1260 2200 l0 -230 180 0 180 0 0 35 0 34 -117 3 -118 3 0 55 0 55
73 3 73 3 -3 37 -3 37 -73 3 -73 3 3 52 3 52 113 3 112 3 0 39 0 40 -175 0
-175 0 0 -230z" fill="#9450f2"/>
<path d="M1690 2428 c0 -2 31 -104 68 -228 l69 -225 55 -3 55 -3 34 117 c53
182 61 183 111 9 l35 -120 54 -3 54 -3 64 213 c35 117 66 221 69 231 4 16 -1
18 -39 15 l-44 -3 -35 -132 c-28 -106 -38 -133 -52 -133 -17 0 -19 5 -75 200
l-19 65 -51 3 -50 3 -38 -136 c-53 -188 -55 -187 -130 78 l-16 57 -60 0 c-32
0 -59 -1 -59 -2z" fill="#9450f2"/>
</g>
</svg>
